<svg xmlns="http://www.w3.org/2000/svg" viewBox="0 0 32 32" fill="none">
  <!-- Connection lines with white outline -->
  <line x1="16" y1="8" x2="8" y2="18" stroke="white" stroke-width="3.5" opacity="0.3"/>
  <line x1="16" y1="8" x2="24" y2="16" stroke="white" stroke-width="3.5" opacity="0.3"/>
  <line x1="16" y1="8" x2="16" y2="20" stroke="white" stroke-width="3.5" opacity="0.3"/>
  <line x1="8" y1="18" x2="14" y2="26" stroke="white" stroke-width="3.5" opacity="0.3"/>
  <line x1="24" y1="16" x2="20" y2="26" stroke="white" stroke-width="3.5" opacity="0.3"/>
  <line x1="16" y1="20" x2="14" y2="26" stroke="white" stroke-width="3.5" opacity="0.3"/>
  <line x1="16" y1="20" x2="20" y2="26" stroke="white" stroke-width="3.5" opacity="0.3"/>
  <!-- Connection lines -->
  <line x1="16" y1="8" x2="8" y2="18" stroke="#003DA5" stroke-width="1.5" opacity="0.3"/>
  <line x1="16" y1="8" x2="24" y2="16" stroke="#003DA5" stroke-width="1.5" opacity="0.3"/>
  <line x1="16" y1="8" x2="16" y2="20" stroke="#003DA5" stroke-width="1.5" opacity="0.3"/>
  <line x1="8" y1="18" x2="14" y2="26" stroke="#003DA5" stroke-width="1.5" opacity="0.3"/>
  <line x1="24" y1="16" x2="20" y2="26" stroke="#003DA5" stroke-width="1.5" opacity="0.3"/>
  <line x1="16" y1="20" x2="14" y2="26" stroke="#003DA5" stroke-width="1.5" opacity="0.3"/>
  <line x1="16" y1="20" x2="20" y2="26" stroke="#003DA5" stroke-width="1.5" opacity="0.3"/>
  <!-- Nodes with white outline -->
  <circle cx="16" cy="8" r="3.5" fill="#003DA5" stroke="white" stroke-width="1.2"/>
  <circle cx="8" cy="18" r="2.5" fill="#003DA5" opacity="0.7" stroke="white" stroke-width="1.2"/>
  <circle cx="24" cy="16" r="3" fill="#003DA5" opacity="0.8" stroke="white" stroke-width="1.2"/>
  <circle cx="16" cy="20" r="2" fill="#003DA5" opacity="0.5" stroke="white" stroke-width="1.2"/>
  <circle cx="14" cy="26" r="2.5" fill="#003DA5" opacity="0.6" stroke="white" stroke-width="1.2"/>
  <circle cx="20" cy="26" r="2" fill="#003DA5" opacity="0.45" stroke="white" stroke-width="1.2"/>
</svg>
